<?xml version="1.0" encoding="utf-8"?>
<!-- Generator: Adobe Illustrator 19.2.1, SVG Export Plug-In . SVG Version: 6.00 Build 0)  -->
<svg version="1.1" id="layer" xmlns="http://www.w3.org/2000/svg" xmlns:xlink="http://www.w3.org/1999/xlink" x="0px" y="0px"
	 viewBox="0 0 652 652" style="enable-background:new 0 0 652 652;" xml:space="preserve">
<style type="text/css">
	.st0{fill:#004397;}
	.st1{fill:#FCEE00;}
	.st2{fill:#D50C19;}
	.st3{fill:#006731;}
</style>
<rect x="459.5" y="268.4" class="st0" width="160.8" height="106.5"/>
<path class="st1" d="M541,284.1h4.7l-3.7,2.8l1.4,4.5l-3.7-2.8l-3.8,2.8l1.5-4.5l-3.8-2.8h4.7l1.4-4.3L541,284.1z M539.8,351.8
	l-1.4,4.4h-4.7l3.8,2.8l-1.5,4.5l3.7-2.7l3.8,2.7l-1.4-4.5l3.8-2.8h-4.7L539.8,351.8z M559.1,351.4h4.7l-3.8,2.8l1.5,4.5l-3.8-2.7
	l-3.7,2.7l1.5-4.5l-3.8-2.8h4.6l1.4-4.3L559.1,351.4z M557.7,284.5l-1.4,4.3h-4.6l3.8,2.8l-1.5,4.5l3.7-2.7l3.8,2.7l-1.5-4.5
	l3.8-2.8h-4.7L557.7,284.5z M572.3,302.1h4.7l-3.8,2.8l1.4,4.5l-3.7-2.8l-3.7,2.8l1.5-4.5l-3.8-2.8h4.7l1.4-4.3L572.3,302.1z
	 M570.9,334l-1.4,4.3h-4.7l3.8,2.8l-1.5,4.5l3.7-2.7l3.7,2.7l-1.4-4.5l3.8-2.8h-4.7L570.9,334z M577.3,319.9h4.7l-3.8,2.8l1.4,4.5
	l-3.8-2.7l-3.7,2.7l1.5-4.5l-3.8-2.8h4.7l1.4-4.3L577.3,319.9z M521.4,284.6l-1.4,4.4h-4.6l3.8,2.8l-1.5,4.5l3.7-2.8l3.8,2.8
	l-1.4-4.5l3.7-2.8h-4.7L521.4,284.6z M510,302.2h4.7l-3.8,2.8l1.4,4.5l-3.7-2.8l-3.7,2.8l1.5-4.5l-3.8-2.8h4.6l1.4-4.3L510,302.2z
	 M503.8,315.6l-1.4,4.4h-4.7l3.8,2.8l-1.5,4.5l3.8-2.8l3.7,2.8l-1.4-4.5l3.7-2.8h-4.7L503.8,315.6z M510,338.4h4.7l-3.8,2.8l1.4,4.5
	l-3.7-2.8l-3.7,2.8l1.5-4.5l-3.8-2.8h4.6l1.4-4.3L510,338.4z M521.7,347.1l-1.4,4.4h-4.6l3.8,2.8l-1.5,4.5l3.7-2.7l3.7,2.7l-1.4-4.5
	l3.8-2.8H523L521.7,347.1z"/>
<path class="st2" d="M107,365.3l24-20.4c2.4-2,4.4-3.8,6.1-5.4c1.7-1.6,3-3.2,4-4.6c1-1.5,1.8-2.9,2.2-4.3c0.5-1.4,0.7-2.9,0.7-4.5
	c0-3.5-1.1-6.1-3.3-8c-2.2-1.9-4.8-2.8-8-2.8c-3.2,0-6,0.9-8.4,2.6c-2.4,1.7-5,4.4-7.7,7.9l-8.7-6.8c1.7-2.3,3.3-4.4,5.1-6.3
	c1.7-1.8,3.6-3.4,5.6-4.6c2-1.2,4.3-2.2,6.7-2.9c2.4-0.7,5.2-1,8.3-1c3.4,0,6.5,0.5,9.3,1.5c2.8,1,5.3,2.4,7.3,4.2
	c2,1.8,3.6,4,4.7,6.6c1.1,2.6,1.7,5.4,1.7,8.5v0.2c0,2.7-0.4,5.2-1.1,7.4c-0.7,2.2-1.8,4.4-3.3,6.4c-1.5,2.1-3.4,4.1-5.7,6.2
	c-2.3,2.1-5,4.4-8,6.9l-14.4,12h33.2v10.8H107V365.3z"/>
<path class="st2" d="M199.8,363.7c3.4,0,6.6-0.7,9.5-1.9c2.9-1.3,5.4-3,7.4-5.3c2.1-2.2,3.7-4.8,4.8-7.8c1.2-3,1.7-6.2,1.7-9.6v-0.2
	c0-3.4-0.6-6.6-1.7-9.6c-1.1-3-2.8-5.6-4.9-7.9c-2.1-2.2-4.6-4-7.5-5.3c-2.9-1.3-6.1-2-9.5-2c-3.4,0-6.6,0.7-9.5,2
	c-2.9,1.3-5.3,3-7.4,5.3c-2.1,2.2-3.7,4.8-4.8,7.8s-1.7,6.2-1.7,9.6v0.2c0,3.4,0.6,6.6,1.7,9.6c1.2,3,2.8,5.6,4.9,7.9
	c2.1,2.2,4.6,4,7.5,5.3C193.1,363,196.3,363.7,199.8,363.7 M199.6,374.9c-5.4,0-10.3-0.9-14.8-2.8c-4.5-1.9-8.3-4.5-11.5-7.7
	c-3.2-3.2-5.7-7.1-7.5-11.4c-1.8-4.4-2.7-9-2.7-13.9v-0.2c0-4.9,0.9-9.6,2.7-13.9c1.8-4.3,4.3-8.2,7.6-11.5
	c3.3-3.3,7.1-5.9,11.6-7.8c4.5-1.9,9.4-2.9,14.8-2.9c5.4,0,10.3,1,14.8,2.8c4.4,1.9,8.3,4.5,11.5,7.7c3.2,3.2,5.7,7,7.5,11.4
	c1.8,4.3,2.7,9,2.7,13.9v0.2c0,4.9-0.9,9.6-2.7,13.9c-1.8,4.3-4.3,8.2-7.6,11.5c-3.3,3.3-7.1,5.9-11.6,7.8
	C209.9,374,204.9,374.9,199.6,374.9"/>
<path class="st2" d="M241,365.3l24-20.4c2.4-2,4.4-3.8,6.1-5.4c1.7-1.6,3-3.2,4-4.6c1-1.5,1.8-2.9,2.2-4.3c0.5-1.4,0.7-2.9,0.7-4.5
	c0-3.5-1.1-6.1-3.2-8c-2.2-1.9-4.8-2.8-8-2.8c-3.2,0-6,0.9-8.4,2.6c-2.4,1.7-5,4.4-7.7,7.9l-8.7-6.8c1.7-2.3,3.4-4.4,5.1-6.3
	c1.7-1.8,3.6-3.4,5.6-4.6c2.1-1.2,4.3-2.2,6.7-2.9c2.4-0.7,5.2-1,8.3-1c3.4,0,6.5,0.5,9.3,1.5c2.8,1,5.3,2.4,7.3,4.2
	c2,1.8,3.6,4,4.7,6.6c1.1,2.6,1.7,5.4,1.7,8.5v0.2c0,2.7-0.4,5.2-1.1,7.4c-0.7,2.2-1.9,4.4-3.4,6.4c-1.5,2.1-3.4,4.1-5.7,6.2
	c-2.3,2.1-5,4.4-8,6.9l-14.4,12h33.2v10.8H241V365.3z"/>
<path class="st2" d="M333.7,363.7c3.4,0,6.6-0.7,9.5-1.9c2.9-1.3,5.3-3,7.4-5.3c2.1-2.2,3.7-4.8,4.8-7.8c1.2-3,1.7-6.2,1.7-9.6v-0.2
	c0-3.4-0.6-6.6-1.7-9.6c-1.2-3-2.8-5.6-4.9-7.9c-2.1-2.2-4.6-4-7.5-5.3c-2.9-1.3-6.1-2-9.5-2c-3.4,0-6.6,0.7-9.5,2
	c-2.9,1.3-5.4,3-7.4,5.3c-2.1,2.2-3.7,4.8-4.8,7.8c-1.2,3-1.7,6.2-1.7,9.6v0.2c0,3.4,0.6,6.6,1.7,9.6c1.1,3,2.8,5.6,4.9,7.9
	c2.1,2.2,4.6,4,7.5,5.3C327.1,363,330.3,363.7,333.7,363.7 M333.5,374.9c-5.4,0-10.3-0.9-14.8-2.8c-4.5-1.9-8.3-4.5-11.5-7.7
	c-3.2-3.2-5.7-7.1-7.5-11.4c-1.8-4.4-2.7-9-2.7-13.9v-0.2c0-4.9,0.9-9.6,2.7-13.9c1.8-4.3,4.3-8.2,7.6-11.5
	c3.3-3.3,7.1-5.9,11.6-7.8c4.5-1.9,9.4-2.9,14.8-2.9c5.4,0,10.3,1,14.7,2.8c4.4,1.9,8.3,4.5,11.5,7.7c3.2,3.2,5.7,7,7.5,11.4
	c1.8,4.3,2.7,9,2.7,13.9v0.2c0,4.9-0.9,9.6-2.7,13.9c-1.8,4.3-4.3,8.2-7.6,11.5c-3.3,3.3-7.1,5.9-11.6,7.8
	C343.8,374,338.9,374.9,333.5,374.9"/>
<path class="st3" d="M237.2,288.2v-2.4c0.8-0.1,1.7-0.3,2.5-0.3v-14.2c-0.9,0-1.8-0.2-2.5-0.4v-2.3h8.8v2.3
	c-0.8,0.2-1.7,0.3-2.5,0.4v13.8h3.8c0.1-0.7,0.2-1.5,0.3-2.4h2.8v5.5H237.2z M227.2,275.4c-0.4-1.1-0.7-2-0.9-3.1h0
	c-0.2,1-0.5,2.1-0.9,3.2l-1.7,4.7h5.3L227.2,275.4z M228.6,288.2v-2.4c0.6-0.1,1.4-0.2,2.1-0.3l-0.8-2.3h-7.1l-0.8,2.3
	c0.7,0.1,1.5,0.2,2.1,0.3v2.4h-7.4v-2.4c0.5-0.1,1-0.2,1.5-0.3l6-17h4.6l6.1,17c0.5,0,1.1,0.1,1.6,0.3v2.4H228.6z M215,280.6v6.7
	c-1.9,0.8-4.4,1.2-6.8,1.2c-6.2,0-9.8-3.7-9.8-9.6c0-6.2,4.2-10.5,10.9-10.5c1.8,0,3.7,0.3,5.5,0.7v5.3h-2.9
	c-0.2-0.8-0.3-1.6-0.3-2.4c-0.8-0.2-1.6-0.3-2.4-0.3c-3.8,0-6.6,2.4-6.6,6.9c0,4.2,2.3,6.6,6.2,6.6c0.9,0,1.7-0.1,2.5-0.3v-4.1
	c-0.9-0.1-1.8-0.2-2.5-0.4v-2.4h7.9v2.4C216.1,280.4,215.5,280.5,215,280.6 M195.5,271.3v9.4c0,5.2-2.9,7.8-8.1,7.8
	c-6.2,0-7.6-3.4-7.6-7.1v-10.1c-0.6,0-1.3-0.2-1.8-0.3v-2.4h7.7v2.4c-0.7,0.2-1.4,0.3-2.1,0.3v9.9c0,2.5,0.8,4.2,4,4.2
	c2.9,0,4.1-1.2,4.1-4.6v-9.5c-0.7,0-1.4-0.1-2.1-0.3v-2.4h7.6v2.4C196.8,271.1,196.2,271.2,195.5,271.3 M173.7,274.1
	c-0.1-0.9-0.3-1.7-0.3-2.4h-3v13.8c0.9,0.1,1.8,0.2,2.5,0.3v2.4H164v-2.4c0.8-0.1,1.7-0.3,2.5-0.3v-13.8h-3
	c-0.1,0.7-0.2,1.5-0.3,2.4h-2.8v-5.5h16v5.5H173.7z M151.5,271.6c-0.5,0-1.1,0-1.4,0.1v5.7c0.3,0,0.8,0.1,1.3,0.1
	c2.3,0,3.7-1.2,3.7-3C155,272.5,153.9,271.6,151.5,271.6 M155.3,288.2l-4.8-8.1H150v5.4c0.6,0.1,1.2,0.1,1.8,0.3v2.4h-8.1v-2.4
	c0.8-0.1,1.7-0.3,2.5-0.3v-14.2c-0.9,0-1.8-0.2-2.5-0.4v-2.3h2.3c0.8,0,3.5-0.1,5.9-0.1c4.3,0,7.1,1.5,7.1,5.5
	c0,2.7-1.9,4.7-4.6,5.3c0.4,0.5,0.7,1,1,1.4l3,4.7c0.6,0.1,1.2,0.2,1.9,0.3v2.4H155.3z M133.1,271.7c-2.7,0-5.2,2.2-5.2,6.5
	c0,4.2,1.6,6.8,5.1,6.8c2.6,0,5.3-2,5.3-6.7C138.3,274,136.5,271.7,133.1,271.7 M132.8,288.5c-6,0-8.9-3.8-8.9-9.9
	c0-6.5,4.3-10.4,9.6-10.4c5.2,0,8.9,3.1,8.9,9.9C142.4,284.6,138.1,288.5,132.8,288.5 M114.6,271.6c-0.5,0-0.9,0-1.3,0v6.5
	c0.4,0,0.8,0.1,1.1,0.1c2.3,0,3.9-1.3,3.9-3.4C118.3,272.8,117.2,271.6,114.6,271.6 M114.6,281.3c-0.3,0-0.8,0-1.3,0v4.2
	c0.9,0.1,1.8,0.2,2.5,0.3v2.4H107v-2.4c0.8-0.1,1.7-0.3,2.5-0.3v-14.2c-0.9,0-1.8-0.2-2.5-0.4v-2.3h2.3c0.9,0,3.5-0.1,5.5-0.1
	c4.8,0,7.4,2.2,7.4,6.1C122.2,278.3,119.3,281.3,114.6,281.3"/>
<path class="st3" d="M48.3,269.1c-17.3,6.8-28,24.9-28,52.6v42.1c0,0,3.5-27.1,28-34.9V269.1z"/>
<path class="st2" d="M56.6,333.1c-10,2-24.7,10.1-29.1,21.4c21.6-26.2,65.5-0.9,67.5-50.1c0.6-15.6,0.7-34.8,0.7-34.8
	c-23,1.3-39.1,7.4-39.1,7.4V333.1z"/>
<path class="st3" d="M53.8,347.3c0,0-23.4,1.9-25.4,15.2c-1.6,10.4,25.4,10.7,25.4,10.7V347.3z"/>
</svg>
